<svg version="1.1" xmlns="http://www.w3.org/2000/svg" viewBox="0 0 662.830341001303 386.609375">
  <!-- svg-source:excalidraw -->
  <defs>
    <style>
      @font-face {
        font-family: "Virgil";
        src: url("https://excalidraw.com/FG_Virgil.woff2");
      }
      @font-face {
        font-family: "Cascadia";
        src: url("https://excalidraw.com/Cascadia.woff2");
      }
    </style>
  </defs>
  <rect x="0" y="0" width="662.830341001303" height="386.609375" fill="#ffffff"></rect><g><g transform="translate(42.947528501303054 345.63671875) rotate(0 267.470703125 -0.685546875)"><path d="M0 0 C89.15690104166667 -0.228515625, 445.7845052083333 -1.142578125, 534.94140625 -1.37109375 M0 0 C89.15690104166667 -0.228515625, 445.7845052083333 -1.142578125, 534.94140625 -1.37109375" stroke="#000000" stroke-width="1" fill="none"></path></g><g transform="translate(42.947528501303054 345.63671875) rotate(0 267.470703125 -0.685546875)"><path d="M506.7770188124655 8.961731626848717 C516.8072132929942 5.281898422842494, 526.837407773523 1.6020652188362714, 534.94140625 -1.37109375 M506.7770188124655 8.961731626848717 C513.8599676774643 6.363170804693378, 520.9429165424631 3.7646099825380386, 534.94140625 -1.37109375" stroke="#000000" stroke-width="1" fill="none"></path></g><g transform="translate(42.947528501303054 345.63671875) rotate(0 267.470703125 -0.685546875)"><path d="M506.72442163433374 -11.559409567604689 C516.7733475687937 -7.931040610308175, 526.8222735032538 -4.30267165301166, 534.94140625 -1.37109375 M506.72442163433374 -11.559409567604689 C513.8205979527603 -8.997190875058918, 520.9167742711868 -6.434972182513146, 534.94140625 -1.37109375" stroke="#000000" stroke-width="1" fill="none"></path></g></g><g><g transform="translate(45.443622251303054 346.32421875) rotate(0 2.58984375 -168.162109375)"><path d="M0 0 C0.86328125 -56.054036458333336, 4.31640625 -280.2701822916667, 5.1796875 -336.32421875 M0 0 C0.86328125 -56.054036458333336, 4.31640625 -280.2701822916667, 5.1796875 -336.32421875" stroke="#000000" stroke-width="1" fill="none"></path></g><g transform="translate(45.443622251303054 346.32421875) rotate(0 2.58984375 -168.162109375)"><path d="M15.004963976575118 -307.97877921982405 C11.214547066358096 -318.9139456325828, 7.424130156141074 -329.84911204534154, 5.1796875 -336.32421875 M15.004963976575118 -307.97877921982405 C11.488715914317467 -318.12298198698784, 7.972467852059816 -328.26718475415163, 5.1796875 -336.32421875" stroke="#000000" stroke-width="1" fill="none"></path></g><g transform="translate(45.443622251303054 346.32421875) rotate(0 2.58984375 -168.162109375)"><path d="M-5.513811374128155 -308.29478632925657 C-1.3884497053223814 -319.10804281976556, 2.736911963483392 -329.92129931027455, 5.1796875 -336.32421875 M-5.513811374128155 -308.29478632925657 C-1.686845813967714 -318.3258971759181, 2.1401197461927266 -328.3570080225796, 5.1796875 -336.32421875" stroke="#000000" stroke-width="1" fill="none"></path></g></g><g><g transform="translate(46.775653501303054 316.81640625) rotate(0 256.05859375 -151.14990625000002)"><path d="M0 0 C3.1744791666666665 -0.18815104166666666, 2.153645833333332 1.677734375, 19.046875 -1.12890625 C35.94010416666667 -3.935546875, 77.34309895833333 -11.3515625, 101.359375 -16.83984375 C125.37565104166667 -22.328125, 134 -25.4375, 163.14453125 -34.05859375 C192.2890625 -42.6796875, 250.61067708333334 -60.535807291666664, 276.2265625 -68.56640625 C301.8424479166667 -76.59700520833333, 306.5592447916667 -78.50390625, 316.83984375 -82.2421875 C327.1204427083333 -85.98046875, 328.2923177083333 -85.84375, 337.91015625 -90.99609375 C347.5279947916667 -96.1484375, 361.345703125 -103.34244791666667, 374.546875 -113.15625 C387.748046875 -122.97005208333333, 406.716796875 -140.076171875, 417.1171875 -149.87890625 C427.517578125 -159.681640625, 427.32421875 -159.91145833333334, 436.94921875 -171.97265625 C446.57421875 -184.03385416666666, 466.8326822916667 -211.16471354166666, 474.8671875 -222.24609375 C482.9016927083333 -233.32747395833334, 480.86328125 -230.49348958333334, 485.15625 -238.4609375 C489.44921875 -246.42838541666666, 496.1315104166667 -259.33984375, 500.625 -270.05078125 C505.1184895833333 -280.76171875, 510.2018229166667 -297.2805989583333, 512.1171875 -302.7265625 M0 0 C3.1744791666666665 -0.18815104166666666, 2.153645833333332 1.677734375, 19.046875 -1.12890625 C35.94010416666667 -3.935546875, 77.34309895833333 -11.3515625, 101.359375 -16.83984375 C125.37565104166667 -22.328125, 134 -25.4375, 163.14453125 -34.05859375 C192.2890625 -42.6796875, 250.61067708333334 -60.535807291666664, 276.2265625 -68.56640625 C301.8424479166667 -76.59700520833333, 306.5592447916667 -78.50390625, 316.83984375 -82.2421875 C327.1204427083333 -85.98046875, 328.2923177083333 -85.84375, 337.91015625 -90.99609375 C347.5279947916667 -96.1484375, 361.345703125 -103.34244791666667, 374.546875 -113.15625 C387.748046875 -122.97005208333333, 406.716796875 -140.076171875, 417.1171875 -149.87890625 C427.517578125 -159.681640625, 427.32421875 -159.91145833333334, 436.94921875 -171.97265625 C446.57421875 -184.03385416666666, 466.8326822916667 -211.16471354166666, 474.8671875 -222.24609375 C482.9016927083333 -233.32747395833334, 480.86328125 -230.49348958333334, 485.15625 -238.4609375 C489.44921875 -246.42838541666666, 496.1315104166667 -259.33984375, 500.625 -270.05078125 C505.1184895833333 -280.76171875, 510.2018229166667 -297.2805989583333, 512.1171875 -302.7265625" stroke="#c92a2a" stroke-width="2" fill="none"></path></g></g><g><g transform="translate(47.939716001303054 280.5390625) rotate(0 261.189453125 -42.760138671874984)"><path d="M0 0 C7.781901041666667 0, 21.736328125 2.2747395833333335, 46.69140625 0 C71.646484375 -2.2747395833333335, 117.15755208333334 -8.784505208333332, 149.73046875 -13.6484375 C182.30338541666666 -18.512369791666668, 216.60221354166666 -25.151692708333332, 242.12890625 -29.18359375 C267.6555989583333 -33.215494791666664, 278.8229166666667 -33.473307291666664, 302.890625 -37.83984375 C326.9583333333333 -42.206380208333336, 361.2643229166667 -50.32421875, 386.53515625 -55.3828125 C411.8059895833333 -60.44140625, 431.875 -63.001302083333336, 454.515625 -68.19140625 C477.15625 -73.38151041666667, 511.068359375 -83.46809895833333, 522.37890625 -86.5234375 M0 0 C7.781901041666667 0, 21.736328125 2.2747395833333335, 46.69140625 0 C71.646484375 -2.2747395833333335, 117.15755208333334 -8.784505208333332, 149.73046875 -13.6484375 C182.30338541666666 -18.512369791666668, 216.60221354166666 -25.151692708333332, 242.12890625 -29.18359375 C267.6555989583333 -33.215494791666664, 278.8229166666667 -33.473307291666664, 302.890625 -37.83984375 C326.9583333333333 -42.206380208333336, 361.2643229166667 -50.32421875, 386.53515625 -55.3828125 C411.8059895833333 -60.44140625, 431.875 -63.001302083333336, 454.515625 -68.19140625 C477.15625 -73.38151041666667, 511.068359375 -83.46809895833333, 522.37890625 -86.5234375" stroke="#5c940d" stroke-width="2" fill="none"></path></g></g><g transform="translate(-127.69301327570997 188.8314421816342) rotate(271.0588827237191 152 11.5)"><text x="0" y="18" font-family="Helvetica" font-size="20px" fill="#000000" text-anchor="start" style="white-space: pre;" direction="ltr">Time needed to add new a feature</text></g><g transform="translate(227.16627850130305 353.609375) rotate(0 80 11.5)"><text x="0" y="18" font-family="Helvetica" font-size="20px" fill="#000000" text-anchor="start" style="white-space: pre;" direction="ltr">Size of the project</text></g><g transform="translate(324.12330975130305 31.3359375) rotate(0 98.5 23)"><text x="98.5" y="18" font-family="Helvetica" font-size="20px" fill="#c92a2a" text-anchor="middle" style="white-space: pre;" direction="ltr">No state management</text><text x="98.5" y="41" font-family="Helvetica" font-size="20px" fill="#c92a2a" text-anchor="middle" style="white-space: pre;" direction="ltr">library</text></g><g transform="translate(423.83034100130305 235.2890625) rotate(0 114.5 11.5)"><text x="114.5" y="18" font-family="Helvetica" font-size="20px" fill="#5c940d" text-anchor="middle" style="white-space: pre;" direction="ltr">State management library</text></g></svg>